<svg xmlns="http://www.w3.org/2000/svg" xmlns:xlink="http://www.w3.org/1999/xlink" viewBox="0 0 800 301.76"><defs><style>.cls-1{isolation:isolate;}.cls-2{fill:#344050;}.cls-3{fill:url(#linear-gradient);}.cls-4{fill:url(#linear-gradient-2);}.cls-5{fill:#fff;opacity:0.5;mix-blend-mode:overlay;}.cls-6,.cls-9{mix-blend-mode:multiply;}.cls-6{fill:url(#linear-gradient-3);}.cls-7{fill:url(#linear-gradient-4);}.cls-8{fill:url(#linear-gradient-5);}.cls-9{fill:url(#linear-gradient-6);}</style><linearGradient id="linear-gradient" x1="685.95" y1="-107.5" x2="560.9" y2="-43.87" gradientTransform="matrix(1, -0.08, 0.08, 1, -204.31, 201.24)" gradientUnits="userSpaceOnUse"><stop offset="0" stop-color="#fab017"/><stop offset="1" stop-color="#ed2d44"/></linearGradient><linearGradient id="linear-gradient-2" x1="679.03" y1="-104.05" x2="561.16" y2="-44.07" gradientTransform="matrix(1, -0.08, 0.08, 1, -204.31, 201.24)" gradientUnits="userSpaceOnUse"><stop offset="0" stop-color="#f37845" stop-opacity="0.5"/><stop offset="1" stop-color="#bf0079"/></linearGradient><linearGradient id="linear-gradient-3" x1="689.29" y1="-171.65" x2="589.65" y2="-120.94" gradientTransform="translate(-232.16 259.54) rotate(-2.98)" xlink:href="#linear-gradient-2"/><linearGradient id="linear-gradient-4" x1="-1333.36" y1="-276.9" x2="-1458.4" y2="-213.28" gradientTransform="matrix(-1, -0.08, -0.08, 1, -1026.18, 201.24)" xlink:href="#linear-gradient"/><linearGradient id="linear-gradient-5" x1="-1340.28" y1="-273.45" x2="-1458.15" y2="-213.47" gradientTransform="matrix(-1, -0.08, -0.08, 1, -1026.18, 201.24)" xlink:href="#linear-gradient-2"/><linearGradient id="linear-gradient-6" x1="-1334.47" y1="-277.03" x2="-1434.11" y2="-226.33" gradientTransform="matrix(-1, -0.05, -0.05, 1, -998.33, 259.54)" xlink:href="#linear-gradient-2"/></defs><title>Focus Edumatics_White</title><g class="cls-1"><g id="Layer_1" data-name="Layer 1"><path class="cls-2" d="M6.86,161.84H36v10.89H18v10.66H36v10.73H18v26.42H6.86Z"/><path class="cls-2" d="M77.73,160.36a29.14,29.14,0,0,1,21.42,9,30,30,0,0,1,9,22,29.69,29.69,0,0,1-8.85,21.75A29.12,29.12,0,0,1,77.81,222q-13.22,0-22-9.13a30.85,30.85,0,0,1,21.88-52.52Zm-.12,10.94A18.45,18.45,0,0,0,63.91,177a19.74,19.74,0,0,0-5.55,14.41q0,9.74,7,15.4a19.16,19.16,0,0,0,12.46,4.43,18.2,18.2,0,0,0,13.54-5.75,20.71,20.71,0,0,0,0-28.35A18.36,18.36,0,0,0,77.61,171.3Z"/><path class="cls-2" d="M176.69,172.15l-7.82,7.45q-8-8.41-17.94-8.42A19.66,19.66,0,0,0,131,191.11a21,21,0,0,0,2.55,10.42,18.26,18.26,0,0,0,7.22,7.15,20.94,20.94,0,0,0,10.36,2.6,21.38,21.38,0,0,0,8.89-1.82,31.56,31.56,0,0,0,8.85-6.61l7.58,7.91q-6.51,6.35-12.29,8.8A33.5,33.5,0,0,1,151,222q-13.69,0-22.41-8.68t-8.72-22.24a30.49,30.49,0,0,1,4-15.6,29.56,29.56,0,0,1,11.38-11,32.13,32.13,0,0,1,15.94-4.15,33.86,33.86,0,0,1,25.58,11.79Z"/><path class="cls-2" d="M190.15,161.84h11.22v38q0,4.9.85,6.93a6.87,6.87,0,0,0,2.84,3.25,8.89,8.89,0,0,0,4.76,1.22,9.24,9.24,0,0,0,5.09-1.36,7.19,7.19,0,0,0,3-3.44c.54-1.4.81-4.06.81-8V161.84H229.9v35q0,8.86-1,12.29a17.58,17.58,0,0,1-3.81,6.63,17.78,17.78,0,0,1-6.49,4.73,22,22,0,0,1-8.54,1.53A20.61,20.61,0,0,1,199,219.08a17,17,0,0,1-6.76-7.34q-2-4.41-2-14.91Z"/><path class="cls-2" d="M277.76,169.82l-8.28,7.3q-4.35-6.06-8.87-6.06a5.41,5.41,0,0,0-3.6,1.17,3.45,3.45,0,0,0-1.4,2.66,4.53,4.53,0,0,0,1,2.79q1.36,1.75,8.19,7.54,6.4,5.35,7.76,6.75a23.43,23.43,0,0,1,4.82,6.56,16.48,16.48,0,0,1,1.41,6.84,15.7,15.7,0,0,1-5,11.94q-5,4.69-13,4.7a19.39,19.39,0,0,1-10.93-3.07,24.31,24.31,0,0,1-8-9.66l9.4-5.66q4.23,7.78,9.75,7.78a7.14,7.14,0,0,0,4.83-1.68,5,5,0,0,0,2-3.87,6.66,6.66,0,0,0-1.48-4,42.67,42.67,0,0,0-6.51-6.1q-9.6-7.83-12.4-12.07a15.38,15.38,0,0,1-2.79-8.48,13.89,13.89,0,0,1,4.65-10.48,16.15,16.15,0,0,1,11.49-4.37,18.09,18.09,0,0,1,8.37,2Q273.13,164.43,277.76,169.82Z"/><path class="cls-2" d="M320.53,161.84h32v10.93H331.62v10.62h20.95v10.73H331.62v15.44h20.95v11h-32Z"/><path class="cls-2" d="M367.11,161.84h13.24q12.79,0,19,3.17a24.77,24.77,0,0,1,10.24,10.32,36.17,36.17,0,0,1,1.78,29.15,26,26,0,0,1-6.22,9.43,22,22,0,0,1-8.6,5.19q-4.62,1.44-16,1.44H367.11Zm11.1,10.77v37h5.18q7.67,0,11.12-1.75a13.36,13.36,0,0,0,5.64-5.92,21.69,21.69,0,0,0,2.2-10.22q0-9.34-5.23-14.5-4.71-4.63-15.12-4.64Z"/><path class="cls-2" d="M428,161.84h11.21v38a19.64,19.64,0,0,0,.86,6.93,6.91,6.91,0,0,0,2.83,3.25,9,9,0,0,0,4.77,1.22,9.24,9.24,0,0,0,5.09-1.36,7.11,7.11,0,0,0,2.95-3.44c.55-1.4.82-4.06.82-8V161.84h11.22v35q0,8.86-1,12.29a17.58,17.58,0,0,1-3.81,6.63,17.78,17.78,0,0,1-6.49,4.73,22.07,22.07,0,0,1-8.54,1.53,20.61,20.61,0,0,1-11.11-2.93,17,17,0,0,1-6.76-7.34q-2-4.41-2-14.91Z"/><path class="cls-2" d="M490.47,161.84h10.89L515,202.78l13.73-40.94h10.88l9.84,58.7h-10.8l-6.29-37.07-12.47,37.07H510l-12.36-37.07-6.44,37.07h-10.9Z"/><path class="cls-2" d="M580.32,161.84h11.33l22.58,58.7H602.61L598,208.45H574.07l-4.78,12.09H557.68Zm5.73,15.56-7.87,20.15h15.7Z"/><path class="cls-2" d="M621.17,161.84h32.44v11h-10.7v47.69H631.58V172.85H621.17Z"/><path class="cls-2" d="M664.56,161.84h11.09v58.7H664.56Z"/><path class="cls-2" d="M746.26,172.15l-7.82,7.45q-8-8.41-17.94-8.42a19.66,19.66,0,0,0-19.93,19.93,21,21,0,0,0,2.55,10.42,18.23,18.23,0,0,0,7.21,7.15,21,21,0,0,0,10.37,2.6,21.38,21.38,0,0,0,8.89-1.82,31.56,31.56,0,0,0,8.85-6.61l7.58,7.91q-6.51,6.35-12.29,8.8A33.5,33.5,0,0,1,720.52,222q-13.69,0-22.41-8.68t-8.72-22.24a30.49,30.49,0,0,1,4-15.6,29.56,29.56,0,0,1,11.38-11,32.13,32.13,0,0,1,15.94-4.15,33.86,33.86,0,0,1,25.58,11.79Z"/><path class="cls-2" d="M790.93,169.82l-8.28,7.3q-4.35-6.06-8.87-6.06a5.41,5.41,0,0,0-3.6,1.17,3.45,3.45,0,0,0-1.4,2.66,4.53,4.53,0,0,0,1,2.79c.9,1.17,3.64,3.69,8.19,7.54q6.4,5.35,7.76,6.75a23.17,23.17,0,0,1,4.81,6.56,16.33,16.33,0,0,1,1.42,6.84,15.7,15.7,0,0,1-5,11.94q-5,4.69-13,4.7A19.37,19.37,0,0,1,763,218.94a24.31,24.31,0,0,1-8-9.66l9.39-5.66q4.24,7.78,9.76,7.78a7.16,7.16,0,0,0,4.83-1.68,5,5,0,0,0,2-3.87,6.66,6.66,0,0,0-1.48-4,43.18,43.18,0,0,0-6.51-6.1q-9.6-7.83-12.4-12.07a15.38,15.38,0,0,1-2.79-8.48,13.89,13.89,0,0,1,4.65-10.48A16.15,16.15,0,0,1,774,160.36a18.09,18.09,0,0,1,8.37,2Q786.3,164.43,790.93,169.82Z"/><path class="cls-2" d="M56,282.88l-2.86,8.67H49.41L58.77,264h4.29l9.4,27.54H68.65l-2.94-8.67Zm9-2.77-2.7-7.93c-.61-1.8-1-3.43-1.43-5h-.08c-.41,1.64-.86,3.31-1.39,5l-2.7,8Z"/><path class="cls-2" d="M99.22,290.65A17.69,17.69,0,0,1,92,292c-7.77,0-13.61-4.91-13.61-13.94,0-8.62,5.84-14.46,14.38-14.46a14.81,14.81,0,0,1,6.54,1.22l-.86,2.9a13,13,0,0,0-5.56-1.14c-6.45,0-10.74,4.13-10.74,11.36C82.1,284.64,86,289,92.68,289a14.28,14.28,0,0,0,5.8-1.14Z"/><path class="cls-2" d="M126.15,290.65a17.75,17.75,0,0,1-7.28,1.31c-7.76,0-13.6-4.91-13.6-13.94,0-8.62,5.84-14.46,14.38-14.46a14.81,14.81,0,0,1,6.54,1.22l-.86,2.9a13,13,0,0,0-5.56-1.14c-6.45,0-10.74,4.13-10.74,11.36,0,6.74,3.88,11.07,10.58,11.07a14.32,14.32,0,0,0,5.8-1.14Z"/><path class="cls-2" d="M149,278.63H138.24v9.93h11.93v3H134.69V264h14.87v3H138.24v8.7H149Z"/><path class="cls-2" d="M158.88,264h3.55v24.55H174.2v3H158.88Z"/><path class="cls-2" d="M196.51,278.63H185.8v9.93h11.94v3H182.25V264h14.87v3H185.8v8.7h10.71Z"/><path class="cls-2" d="M206.44,264.37a37.72,37.72,0,0,1,6.82-.57c3.8,0,6.25.7,8,2.25a6.84,6.84,0,0,1,2.17,5.23,7.23,7.23,0,0,1-5.19,7v.12c2.12.74,3.39,2.7,4,5.56.9,3.84,1.55,6.49,2.13,7.56H220.7a36.09,36.09,0,0,1-1.84-6.58c-.82-3.8-2.29-5.23-5.52-5.35H210v11.93h-3.55ZM210,276.92h3.64c3.8,0,6.21-2.09,6.21-5.23,0-3.56-2.57-5.11-6.33-5.15a14.26,14.26,0,0,0-3.52.33Z"/><path class="cls-2" d="M237.17,282.88l-2.87,8.67h-3.67L240,264h4.29l9.39,27.54h-3.8l-2.94-8.67Zm9-2.77-2.7-7.93c-.61-1.8-1-3.43-1.43-5H242c-.41,1.64-.86,3.31-1.39,5l-2.7,8Z"/><path class="cls-2" d="M263.89,267h-8.38v-3H275.9v3h-8.41v24.52h-3.6Z"/><path class="cls-2" d="M286.61,264v27.54h-3.56V264Z"/><path class="cls-2" d="M296.91,291.55V264h3.88l8.82,13.93a77.51,77.51,0,0,1,4.95,8.95l.08,0c-.33-3.68-.41-7-.41-11.32V264h3.35v27.54H314l-8.75-14a87.44,87.44,0,0,1-5.15-9.19l-.12,0c.2,3.47.29,6.78.29,11.36v11.77Z"/><path class="cls-2" d="M348.84,290.32a25.7,25.7,0,0,1-8.46,1.51c-4.17,0-7.6-1.06-10.3-3.63a14.18,14.18,0,0,1-3.84-10.26c0-8.21,5.68-14.22,14.92-14.22A16.82,16.82,0,0,1,348,265l-.85,2.9a14.21,14.21,0,0,0-6.09-1.19c-6.7,0-11.08,4.17-11.08,11.08s4.21,11.11,10.63,11.11a11.78,11.78,0,0,0,4.74-.73v-8.22h-5.6v-2.86h9.07Z"/><path class="cls-2" d="M374.67,267h-8.38v-3h20.39v3h-8.42v24.52h-3.59Z"/><path class="cls-2" d="M393.83,264.37a37.72,37.72,0,0,1,6.82-.57c3.8,0,6.26.7,8,2.25a6.84,6.84,0,0,1,2.17,5.23,7.23,7.23,0,0,1-5.19,7v.12c2.12.74,3.39,2.7,4,5.56a44.24,44.24,0,0,0,2.13,7.56h-3.68a36.09,36.09,0,0,1-1.84-6.58c-.82-3.8-2.29-5.23-5.52-5.35h-3.35v11.93h-3.55Zm3.55,12.55H401c3.8,0,6.21-2.09,6.21-5.23,0-3.56-2.57-5.11-6.33-5.15a14.32,14.32,0,0,0-3.52.33Z"/><path class="cls-2" d="M424.56,282.88l-2.86,8.67H418L427.38,264h4.29l9.4,27.54h-3.8l-2.95-8.67Zm9-2.77-2.7-7.93c-.61-1.8-1-3.43-1.43-5h-.08c-.41,1.64-.86,3.31-1.39,5l-2.7,8Z"/><path class="cls-2" d="M449.2,291.55V264h3.88l8.83,13.93a78.86,78.86,0,0,1,4.94,8.95l.08,0c-.33-3.68-.41-7-.41-11.32V264h3.35v27.54h-3.59l-8.75-14a87.44,87.44,0,0,1-5.15-9.19l-.12,0c.21,3.47.29,6.78.29,11.36v11.77Z"/><path class="cls-2" d="M479.68,287.22a12.58,12.58,0,0,0,6.37,1.79c3.64,0,5.77-1.92,5.77-4.7,0-2.57-1.48-4-5.19-5.47-4.5-1.59-7.28-3.92-7.28-7.81,0-4.29,3.56-7.47,8.91-7.47a12.6,12.6,0,0,1,6.09,1.34l-1,2.91a11,11,0,0,0-5.23-1.31c-3.76,0-5.19,2.25-5.19,4.13,0,2.57,1.67,3.84,5.47,5.31,4.66,1.8,7,4,7,8.09,0,4.25-3.14,7.93-9.64,7.93a14.23,14.23,0,0,1-7-1.76Z"/><path class="cls-2" d="M504.4,264h14.83v3H508v9.15h10.42v2.94H508v12.47H504.4Z"/><path class="cls-2" d="M551.92,277.49c0,9.48-5.76,14.51-12.79,14.51-7.27,0-12.38-5.64-12.38-14,0-8.74,5.44-14.46,12.79-14.46C547.06,263.56,551.92,269.32,551.92,277.49Zm-21.37.45c0,5.88,3.19,11.16,8.79,11.16s8.82-5.19,8.82-11.45c0-5.47-2.86-11.19-8.78-11.19S530.55,271.89,530.55,277.94Z"/><path class="cls-2" d="M560.63,264.37a37.64,37.64,0,0,1,6.82-.57c3.8,0,6.25.7,8,2.25a6.84,6.84,0,0,1,2.16,5.23,7.22,7.22,0,0,1-5.19,7v.12c2.13.74,3.4,2.7,4.05,5.56.9,3.84,1.55,6.49,2.13,7.56h-3.68a36.09,36.09,0,0,1-1.84-6.58c-.82-3.8-2.29-5.23-5.52-5.35h-3.35v11.93h-3.55Zm3.55,12.55h3.64c3.8,0,6.21-2.09,6.21-5.23,0-3.56-2.57-5.11-6.33-5.15a14.26,14.26,0,0,0-3.52.33Z"/><path class="cls-2" d="M609.91,279.45c-.21-3.84-.45-8.46-.41-11.89h-.13c-.94,3.23-2.08,6.66-3.47,10.46L601,291.38h-2.7l-4.45-13.11c-1.31-3.88-2.41-7.44-3.19-10.71h-.08c-.08,3.43-.29,8.05-.53,12.18l-.74,11.81H586L587.88,264h4.54l4.7,13.32c1.14,3.39,2.08,6.41,2.77,9.27H600c.69-2.78,1.67-5.8,2.9-9.27l4.9-13.32h4.54l1.71,27.54H610.6Z"/><path class="cls-2" d="M627.68,282.88l-2.86,8.67h-3.68L630.5,264h4.29l9.4,27.54h-3.8l-2.94-8.67Zm9-2.77-2.7-7.93c-.61-1.8-1-3.43-1.43-5h-.08c-.41,1.64-.86,3.31-1.39,5l-2.69,8Z"/><path class="cls-2" d="M654.4,267H646v-3h20.39v3H658v24.52h-3.6Z"/><path class="cls-2" d="M677.12,264v27.54h-3.55V264Z"/><path class="cls-2" d="M711,277.49C711,287,705.2,292,698.17,292c-7.28,0-12.38-5.64-12.38-14,0-8.74,5.43-14.46,12.79-14.46S711,269.32,711,277.49Zm-21.37.45c0,5.88,3.18,11.16,8.78,11.16s8.83-5.19,8.83-11.45c0-5.47-2.86-11.19-8.79-11.19S689.59,271.89,689.59,277.94Z"/><path class="cls-2" d="M719.66,291.55V264h3.88l8.83,13.93a77.33,77.33,0,0,1,4.94,8.95l.08,0c-.32-3.68-.4-7-.4-11.32V264h3.35v27.54h-3.6l-8.74-14a87.44,87.44,0,0,1-5.15-9.19l-.13,0c.21,3.47.29,6.78.29,11.36v11.77Z"/><path class="cls-3" d="M357,121.16c-6.79-8.91,32.33-68.3,115-119.17,3.19-2,17.52-6.34,17.75,10.71S493,69,432.66,89.88,362,127.7,357,121.16Z"/><path class="cls-4" d="M357.32,120.9c-6-5.12,31.78-64.29,112.82-111.91,2.6-1.52,11.52-5.09,11.7,8.59s.8,53.41-67.11,76.32C358.28,113,362.87,125.61,357.32,120.9Z"/><path class="cls-5" d="M472.72,4.83C385,57.06,353.1,115.81,357.32,120.9c1.16,1.41,26.05-29.83,68.17-51.89,36.81-19.28,52.3-11.42,57.5-25.65C485.17,37.4,495.06-8.47,472.72,4.83Z"/><path class="cls-6" d="M357.39,120.87C353.88,117.58,385,65,452.58,26.33c2.61-1.5,11.67-4.72,11.42,9s-2.85,40.34-51.31,57C356.87,111.43,361.58,124.81,357.39,120.87Z"/><path class="cls-7" d="M438.9,121.16c6.78-8.91-32.34-68.3-115-119.17-3.2-2-17.52-6.34-17.75,10.71S302.89,69,363.25,89.88,433.91,127.7,438.9,121.16Z"/><path class="cls-8" d="M438.6,120.9c6-5.12-31.78-64.29-112.83-111.91-2.59-1.52-11.51-5.09-11.7,8.59S313.28,71,381.18,93.9C437.64,113,433.05,125.61,438.6,120.9Z"/><path class="cls-5" d="M323.19,4.83c87.69,52.23,119.62,111,115.41,116.07-1.17,1.41-26.05-29.83-68.18-51.89-36.81-19.28-52.29-11.42-57.5-25.65C310.74,37.4,300.86-8.47,323.19,4.83Z"/><path class="cls-9" d="M438.53,120.87C442,117.58,411,65,343.34,26.33c-2.61-1.5-11.67-4.72-11.42,9s2.85,40.34,51.31,57C439,111.43,434.34,124.81,438.53,120.87Z"/></g></g></svg>