<?xml version="1.0" encoding="utf-8"?>
<!-- Generator: Adobe Illustrator 16.0.0, SVG Export Plug-In . SVG Version: 6.00 Build 0)  -->
<!DOCTYPE svg PUBLIC "-//W3C//DTD SVG 1.0//EN" "http://www.w3.org/TR/2001/REC-SVG-20010904/DTD/svg10.dtd">
<svg version="1.0" id="Layer_1" xmlns="http://www.w3.org/2000/svg" xmlns:xlink="http://www.w3.org/1999/xlink" x="0px" y="0px"
	 width="32px" height="32px" viewBox="0 0 32 32" enable-background="new 0 0 32 32" xml:space="preserve">
<g>
	
		<linearGradient id="SVGID_1_" gradientUnits="userSpaceOnUse" x1="465.6504" y1="128.1377" x2="441.3246" y2="140.5155" gradientTransform="matrix(0.9524 -0.0762 0.0762 0.9524 -424.2744 -75.7554)">
		<stop  offset="0" style="stop-color:#FAB017"/>
		<stop  offset="1" style="stop-color:#ED2D44"/>
	</linearGradient>
	<path fill="url(#SVGID_1_)" d="M8.906,28.404c-1.174-1.846,5.602-14.149,19.918-24.687c0.553-0.416,3.033-1.311,3.072,2.217
		c0.039,3.534,0.563,11.661-9.888,15.986C11.558,26.244,9.772,29.754,8.906,28.404z"/>
	
		<linearGradient id="SVGID_2_" gradientUnits="userSpaceOnUse" x1="464.3799" y1="128.9424" x2="441.4484" y2="140.6114" gradientTransform="matrix(0.9524 -0.0762 0.0762 0.9524 -424.2744 -75.7554)">
		<stop  offset="0" style="stop-color:#F37845;stop-opacity:0.5"/>
		<stop  offset="1" style="stop-color:#BF0079"/>
	</linearGradient>
	<path fill="url(#SVGID_2_)" d="M8.965,28.35c-1.037-1.059,5.504-13.317,19.541-23.181c0.449-0.316,1.997-1.053,2.025,1.778
		c0.029,2.832,0.137,11.064-11.624,15.809C9.131,26.713,9.923,29.321,8.965,28.35z"/>
	<path opacity="0.5" fill="#FFFFFF" enable-background="new    " d="M28.952,4.303C13.76,15.12,8.23,27.291,8.965,28.35
		c0.201,0.293,4.51-6.179,11.806-10.749c6.376-3.995,9.062-2.362,9.963-5.312C31.109,11.049,32.822,1.553,28.952,4.303z"/>
	
		<linearGradient id="SVGID_3_" gradientUnits="userSpaceOnUse" x1="508.9766" y1="55.2539" x2="489.6542" y2="65.0876" gradientTransform="matrix(0.951 -0.0495 0.0495 0.951 -462.0107 -13.0156)">
		<stop  offset="0" style="stop-color:#F37845;stop-opacity:0.5"/>
		<stop  offset="1" style="stop-color:#BF0079"/>
	</linearGradient>
	<path fill="url(#SVGID_3_)" d="M8.975,28.339c-0.607-0.679,4.78-11.573,16.488-19.583c0.45-0.31,2.021-0.977,1.977,1.866
		s-0.494,8.355-8.886,11.807C8.886,26.385,9.704,29.157,8.975,28.339z"/>
	
		<linearGradient id="SVGID_4_" gradientUnits="userSpaceOnUse" x1="-1910.7939" y1="-61.835" x2="-1935.118" y2="-49.4589" gradientTransform="matrix(-0.9524 -0.0762 -0.0762 0.9524 -1821.2549 -75.7554)">
		<stop  offset="0" style="stop-color:#FAB017"/>
		<stop  offset="1" style="stop-color:#ED2D44"/>
	</linearGradient>
	<path fill="url(#SVGID_4_)" d="M23.096,28.404c1.173-1.846-5.604-14.149-19.919-24.687C2.624,3.302,0.143,2.407,0.104,5.935
		c-0.04,3.528-0.563,11.661,9.889,15.986C20.443,26.244,22.229,29.754,23.096,28.404z"/>
	
		<linearGradient id="SVGID_5_" gradientUnits="userSpaceOnUse" x1="-1912.0645" y1="-61.0322" x2="-1934.9969" y2="-49.3627" gradientTransform="matrix(-0.9524 -0.0762 -0.0762 0.9524 -1821.2549 -75.7554)">
		<stop  offset="0" style="stop-color:#F37845;stop-opacity:0.5"/>
		<stop  offset="1" style="stop-color:#BF0079"/>
	</linearGradient>
	<path fill="url(#SVGID_5_)" d="M23.041,28.35C24.079,27.291,17.536,15.033,3.5,5.169C3.05,4.853,1.508,4.116,1.474,6.947
		C1.439,9.779,1.336,18.012,13.099,22.756C22.875,26.713,22.082,29.321,23.041,28.35z"/>
	<path opacity="0.5" fill="#FFFFFF" enable-background="new    " d="M3.054,4.303c15.187,10.817,20.72,22.994,19.992,24.041
		c-0.201,0.293-4.512-6.177-11.811-10.748C4.86,13.6,2.178,15.232,1.273,12.283C0.896,11.049-0.816,1.553,3.054,4.303z"/>
	
		<linearGradient id="SVGID_6_" gradientUnits="userSpaceOnUse" x1="-1876.4741" y1="-66.2598" x2="-1895.7925" y2="-56.4299" gradientTransform="matrix(-0.9524 -0.0476 -0.0476 0.9524 -1783.1309 -11.9453)">
		<stop  offset="0" style="stop-color:#F37845;stop-opacity:0.5"/>
		<stop  offset="1" style="stop-color:#BF0079"/>
	</linearGradient>
	<path fill="url(#SVGID_6_)" d="M23.031,28.339c0.602-0.679-4.771-11.573-16.489-19.583c-0.45-0.31-2.021-0.977-1.977,1.866
		c0.044,2.843,0.494,8.355,8.885,11.807C23.109,26.385,22.302,29.157,23.031,28.339z"/>
</g>
</svg>
