<?xml version="1.0" encoding="utf-8"?>
<!-- Generator: Adobe Illustrator 16.0.0, SVG Export Plug-In . SVG Version: 6.00 Build 0)  -->
<!DOCTYPE svg PUBLIC "-//W3C//DTD SVG 1.0//EN" "http://www.w3.org/TR/2001/REC-SVG-20010904/DTD/svg10.dtd">
<svg version="1.0" id="Layer_1" xmlns="http://www.w3.org/2000/svg" xmlns:xlink="http://www.w3.org/1999/xlink" x="0px" y="0px"
	 width="280px" height="105px" viewBox="0 0 280 105" enable-background="new 0 0 280 105" xml:space="preserve">
<title>Focus Edumatics_White</title>
<g>
	<path fill="#FBC945" d="M0.897,60.188h10.33v3.862H4.841v3.773h6.376v3.804H4.841v9.359H0.897V60.188z"/>
	<path fill="#FBC945" d="M26.012,59.656c2.862-0.04,5.615,1.119,7.586,3.191c2.093,2.051,3.244,4.865,3.194,7.799
		c0.06,2.893-1.081,5.674-3.134,7.705c-1.991,2.063-4.744,3.203-7.617,3.153c-3.123,0-5.725-1.081-7.797-3.233
		c-4.245-4.293-4.194-11.22,0.1-15.463c2.042-2.014,4.785-3.145,7.648-3.152H26.012z M25.961,63.539
		c-1.832-0.04-3.593,0.701-4.855,2.021c-1.321,1.36-2.032,3.203-1.961,5.104c0,2.304,0.83,4.125,2.482,5.456
		c1.24,1.031,2.802,1.592,4.413,1.57c1.812,0.031,3.554-0.709,4.795-2.041c2.653-2.822,2.653-7.228,0-10.051
		C29.585,64.26,27.813,63.509,25.961,63.539z"/>
	<path fill="#FBC945" d="M61.075,63.84l-2.773,2.643c-1.891-1.981-4.013-2.982-6.355-2.982c-3.844-0.05-7.007,3.021-7.067,6.866
		c0,0.06,0,0.131,0,0.19c-0.02,1.291,0.291,2.563,0.901,3.693c0.601,1.07,1.481,1.951,2.563,2.532c1.121,0.62,2.393,0.94,3.673,0.92
		c1.082,0.011,2.162-0.209,3.153-0.64c1.17-0.592,2.232-1.383,3.132-2.344l2.683,2.803c-1.541,1.502-2.992,2.543-4.354,3.123
		c-1.481,0.602-3.063,0.893-4.664,0.86c-3.233,0-5.885-1.021-7.938-3.073c-2.062-2.052-3.093-4.674-3.093-7.875
		c-0.029-1.934,0.461-3.846,1.422-5.527c0.961-1.641,2.362-2.992,4.034-3.894c1.721-0.972,3.673-1.479,5.645-1.472
		c3.483,0.01,6.796,1.531,9.069,4.175L61.075,63.84L61.075,63.84z"/>
	<path fill="#FBC945" d="M65.85,60.188h3.973V73.65c0,1.16,0.101,1.972,0.3,2.451c0.2,0.479,0.561,0.892,1.011,1.151
		c0.511,0.3,1.091,0.449,1.692,0.431c0.63,0.02,1.261-0.151,1.801-0.481c0.481-0.279,0.851-0.71,1.062-1.222
		c0.19-0.5,0.29-1.439,0.29-2.83V60.188h3.963v12.4c0,2.092-0.12,3.543-0.35,4.354c-0.271,0.871-0.731,1.673-1.352,2.353
		c-0.631,0.729-1.412,1.302-2.302,1.673c-0.961,0.379-1.992,0.561-3.023,0.539c-1.381,0.031-2.732-0.331-3.923-1.041
		c-1.041-0.609-1.872-1.51-2.392-2.604c-0.47-1.041-0.71-2.801-0.71-5.283L65.85,60.188z"/>
	<path fill="#FBC945" d="M96.889,63.009l-2.933,2.593c-1.031-1.432-2.072-2.151-3.142-2.151c-0.461-0.021-0.911,0.13-1.272,0.411
		c-0.3,0.219-0.48,0.57-0.5,0.938c0,0.361,0.13,0.711,0.35,0.99c0.32,0.411,1.292,1.303,2.902,2.674
		c1.512,1.263,2.433,2.062,2.753,2.394c0.701,0.67,1.282,1.449,1.711,2.32c0.341,0.762,0.511,1.592,0.501,2.424
		c0.05,1.601-0.601,3.142-1.772,4.233c-1.181,1.11-2.712,1.661-4.604,1.661c-1.371,0.029-2.722-0.35-3.873-1.09
		c-1.231-0.872-2.202-2.055-2.833-3.424l3.333-2.002c1.001,1.84,2.152,2.752,3.453,2.752c0.621,0.02,1.231-0.19,1.712-0.59
		c0.429-0.322,0.69-0.832,0.71-1.371c-0.01-0.521-0.2-1.013-0.521-1.422c-0.69-0.802-1.461-1.521-2.302-2.162
		c-2.272-1.854-3.733-3.272-4.394-4.275c-0.621-0.88-0.96-1.932-0.991-3.001c-0.009-1.423,0.59-2.772,1.652-3.714
		c1.101-1.032,2.563-1.594,4.074-1.553c1.031-0.01,2.053,0.24,2.963,0.711C94.787,60.855,95.798,61.739,96.889,63.009z"/>
	<path fill="#FBC945" d="M112.043,60.188h11.34v3.873h-7.407v3.764h7.427v3.804h-7.427v5.476h7.427v3.895h-11.34L112.043,60.188z"/>
	<path fill="#FBC945" d="M128.549,60.188h4.694c3.021,0,5.265,0.369,6.736,1.119c1.551,0.832,2.813,2.104,3.633,3.654
		c1.652,3.202,1.883,6.946,0.632,10.329c-0.479,1.261-1.231,2.401-2.202,3.344c-0.861,0.839-1.902,1.472-3.043,1.843
		c-1.091,0.34-2.982,0.51-5.666,0.51h-4.765V60.188H128.549z M132.483,64v13.111h1.83c1.813,0,3.125-0.209,3.944-0.62
		c0.871-0.472,1.571-1.212,2.002-2.103c0.552-1.121,0.821-2.371,0.779-3.623c0-2.203-0.619-3.925-1.851-5.136
		c-1.11-1.092-2.902-1.642-5.354-1.642L132.483,64z"/>
	<path fill="#FBC945" d="M150.13,60.188h3.975V73.65c-0.053,0.83,0.059,1.66,0.299,2.451c0.199,0.479,0.551,0.881,1,1.151
		c0.513,0.3,1.103,0.449,1.693,0.431c0.631,0.02,1.262-0.151,1.801-0.481c0.472-0.279,0.842-0.71,1.041-1.222
		c0.189-0.5,0.291-1.439,0.291-2.83V60.188h3.973v12.4c0,2.092-0.119,3.543-0.35,4.354c-0.271,0.871-0.73,1.673-1.352,2.353
		c-0.631,0.729-1.412,1.302-2.303,1.673c-0.963,0.379-1.991,0.561-3.022,0.539c-1.383,0.031-2.754-0.331-3.935-1.041
		c-1.04-0.609-1.871-1.51-2.391-2.604c-0.472-1.041-0.713-2.801-0.713-5.283L150.13,60.188z"/>
	<path fill="#FBC945" d="M172.271,60.188h3.863l4.833,14.504l4.866-14.504h3.854l3.482,20.799h-3.822l-2.234-13.133L182.7,80.986
		h-3.504l-4.383-13.133l-2.283,13.133h-3.862L172.271,60.188z"/>
	<path fill="#FBC945" d="M204.11,60.188h4.013l7.999,20.799h-4.115l-1.631-4.284h-8.479l-1.69,4.284h-4.114L204.11,60.188z
		 M206.132,65.701l-2.793,7.137h5.566L206.132,65.701z"/>
	<path fill="#FBC945" d="M218.585,60.188h11.491v3.893h-3.794v16.896h-4.016V64.09h-3.693v-3.902H218.585z"/>
	<path fill="#FBC945" d="M233.958,60.188h3.934v20.799h-3.934V60.188z"/>
	<path fill="#FBC945" d="M262.905,63.84l-2.771,2.643c-1.892-1.981-4.014-2.982-6.355-2.982c-3.844-0.05-7.008,3.021-7.066,6.866
		c0,0.06,0,0.131,0,0.19c-0.021,1.291,0.29,2.563,0.9,3.693c0.591,1.07,1.48,1.951,2.552,2.532c1.122,0.62,2.394,0.94,3.675,0.92
		c1.08,0.011,2.162-0.209,3.153-0.64c1.171-0.592,2.229-1.383,3.131-2.344l2.685,2.803c-1.543,1.502-2.994,2.543-4.354,3.123
		c-1.481,0.602-3.083,0.893-4.685,0.86c-3.233,0-5.888-1.021-7.938-3.073c-2.063-2.052-3.095-4.674-3.095-7.875
		c-0.029-1.934,0.461-3.846,1.423-5.527c0.962-1.641,2.362-2.992,4.034-3.894c1.722-0.972,3.672-1.479,5.646-1.472
		C257.319,59.675,260.634,61.197,262.905,63.84L262.905,63.84z"/>
	<path fill="#FBC945" d="M278.741,63.009l-2.934,2.582c-1.031-1.432-2.072-2.151-3.144-2.151c-0.46-0.021-0.911,0.131-1.271,0.41
		c-0.301,0.221-0.48,0.57-0.502,0.94c0,0.36,0.131,0.711,0.352,0.991c0.32,0.41,1.291,1.312,2.902,2.674
		c1.512,1.261,2.432,2.061,2.754,2.391c0.699,0.674,1.28,1.451,1.699,2.322c0.342,0.762,0.51,1.592,0.502,2.424
		c0.051,1.6-0.602,3.143-1.773,4.233c-1.18,1.11-2.711,1.661-4.604,1.661c-1.371,0.029-2.723-0.34-3.885-1.09
		c-1.23-0.871-2.202-2.055-2.832-3.426l3.322-2c1.002,1.84,2.152,2.752,3.465,2.752c0.62,0.021,1.23-0.191,1.711-0.592
		c0.432-0.32,0.691-0.831,0.71-1.372c-0.01-0.519-0.198-1.01-0.521-1.42c-0.689-0.801-1.461-1.521-2.301-2.162
		c-2.272-1.853-3.733-3.272-4.396-4.274c-0.62-0.881-0.961-1.932-0.991-3.004c-0.01-1.42,0.592-2.771,1.652-3.713
		c1.101-1.039,2.582-1.592,4.094-1.541c1.029-0.01,2.052,0.24,2.962,0.711C276.63,60.855,277.64,61.739,278.741,63.009z"/>
	<path fill="#FFFFFF" d="M18.304,98.934l-1.011,3.073h-1.321l3.313-9.762h1.521l3.333,9.762h-1.351l-1.041-3.073H18.304z
		 M21.497,97.952l-0.96-2.813c-0.221-0.64-0.351-1.209-0.511-1.771h-0.029c-0.15,0.579-0.301,1.171-0.49,1.771l-0.961,2.834
		L21.497,97.952z"/>
	<path fill="#FFFFFF" d="M33.619,101.686c-0.811,0.34-1.681,0.5-2.563,0.481c-2.753,0-4.824-1.743-4.824-4.944
		c0-3.055,2.071-5.127,5.094-5.127c0.791-0.029,1.591,0.11,2.322,0.432l-0.3,1.031c-0.621-0.281-1.291-0.422-1.972-0.401
		c-2.282,0-3.803,1.463-3.803,4.022c-0.02,2.375,1.361,3.926,3.733,3.926c0.711,0.011,1.4-0.129,2.052-0.399L33.619,101.686z"/>
	<path fill="#FFFFFF" d="M43.168,101.686c-0.821,0.33-1.702,0.49-2.583,0.461c-2.752,0-4.814-1.742-4.814-4.944
		c0-3.054,2.071-5.124,5.095-5.124c0.79-0.031,1.591,0.109,2.322,0.429l-0.301,1.032c-0.62-0.28-1.291-0.421-1.972-0.4
		c-2.282,0-3.803,1.461-3.803,4.023c0,2.393,1.371,3.923,3.753,3.923c0.71,0.011,1.401-0.128,2.051-0.399L43.168,101.686z"/>
	<path fill="#FFFFFF" d="M51.265,97.432h-3.813v3.524h4.224v1.06H46.19v-9.771h5.266v1.062h-4.015v3.084h3.814v1.041H51.265z"/>
	<path fill="#FFFFFF" d="M54.769,92.245h1.262v8.7h4.173v1.062h-5.425v-9.762H54.769z"/>
	<path fill="#FFFFFF" d="M68.101,97.432h-3.793v3.524h4.235v1.06h-5.486v-9.771h5.265v1.062h-4.014v3.084h3.793V97.432z"/>
	<path fill="#FFFFFF" d="M71.615,92.378c0.8-0.142,1.611-0.212,2.412-0.202c1.351,0,2.213,0.25,2.833,0.803
		c0.51,0.479,0.791,1.149,0.771,1.852c0.01,1.141-0.741,2.162-1.842,2.482v0.039c0.751,0.262,1.201,0.959,1.421,1.974
		c0.32,1.36,0.55,2.301,0.751,2.683h-1.302c-0.29-0.752-0.511-1.533-0.65-2.334c-0.291-1.351-0.811-1.852-1.952-1.891h-1.182v4.225
		h-1.261L71.615,92.378L71.615,92.378z M72.876,96.82h1.291c1.352,0,2.203-0.74,2.203-1.852c0-1.262-0.911-1.813-2.243-1.822
		c-0.42-0.011-0.84,0.03-1.251,0.121V96.82z"/>
	<path fill="#FFFFFF" d="M82.505,98.934l-1.021,3.073h-1.301l3.323-9.762h1.521l3.323,9.762h-1.352l-1.041-3.073H82.505z
		 M85.699,97.952l-0.961-2.813c-0.22-0.64-0.35-1.209-0.511-1.771h-0.01c-0.15,0.579-0.3,1.171-0.491,1.771l-0.96,2.834
		L85.699,97.952z"/>
	<path fill="#FFFFFF" d="M91.974,93.307h-2.973v-1.062h7.227v1.062h-2.973v8.689h-1.271L91.974,93.307z"/>
	<path fill="#FFFFFF" d="M100.032,92.245v9.762h-1.271v-9.762H100.032z"/>
	<path fill="#FFFFFF" d="M103.675,102.007v-9.762h1.371l3.124,4.935c0.651,1.022,1.241,2.074,1.752,3.174h0.03
		c-0.12-1.301-0.15-2.479-0.15-4.013v-4.096h1.191v9.762h-1.271l-3.103-4.966c-0.671-1.051-1.282-2.131-1.822-3.254h-0.04
		c0.07,1.23,0.1,2.402,0.1,4.023v4.174L103.675,102.007z"/>
	<path fill="#FFFFFF" d="M122.082,101.564c-0.96,0.352-1.971,0.531-3.002,0.531c-1.482,0-2.692-0.382-3.654-1.291
		c-0.921-0.981-1.411-2.291-1.361-3.635c0-2.912,2.012-5.034,5.285-5.034c0.831-0.021,1.651,0.13,2.422,0.449l-0.3,1.032
		c-0.681-0.301-1.421-0.44-2.162-0.422c-2.372,0-3.924,1.48-3.924,3.925c0,2.453,1.492,3.935,3.764,3.935
		c0.57,0.028,1.141-0.062,1.681-0.261v-2.912h-1.982V96.87h3.213L122.082,101.564z"/>
	<path fill="#FFFFFF" d="M131.231,93.307h-2.974v-1.062h7.226v1.062h-2.981v8.689h-1.271V93.307z"/>
	<path fill="#FFFFFF" d="M138.019,92.378c0.801-0.142,1.61-0.212,2.412-0.202c1.352,0,2.221,0.25,2.834,0.803
		c0.508,0.479,0.789,1.149,0.77,1.852c0.011,1.141-0.742,2.162-1.842,2.482v0.039c0.75,0.262,1.199,0.959,1.42,1.974
		c0.171,0.909,0.422,1.812,0.752,2.683h-1.301c-0.291-0.752-0.512-1.533-0.65-2.334c-0.291-1.351-0.813-1.852-1.952-1.891h-1.19
		v4.225h-1.262L138.019,92.378z M139.278,96.82h1.281c1.351,0,2.201-0.74,2.201-1.852c0-1.262-0.91-1.813-2.24-1.822
		c-0.422-0.011-0.842,0.03-1.252,0.121L139.278,96.82z"/>
	<path fill="#FFFFFF" d="M148.908,98.934l-1.013,3.073h-1.312l3.323-9.762h1.521l3.334,9.762h-1.352l-1.041-3.073H148.908z
		 M152.101,97.952l-0.961-2.813c-0.22-0.64-0.351-1.209-0.511-1.771h-0.028c-0.15,0.579-0.302,1.171-0.49,1.771l-0.961,2.834
		L152.101,97.952z"/>
	<path fill="#FFFFFF" d="M157.647,102.007v-9.762h1.371l3.133,4.935c0.649,1.022,1.24,2.084,1.75,3.174h0.031
		c-0.119-1.301-0.149-2.479-0.149-4.013v-4.096h1.19v9.762h-1.271l-3.104-4.966c-0.671-1.051-1.281-2.131-1.82-3.254h-0.041
		c0.07,1.23,0.102,2.402,0.102,4.023v4.174L157.647,102.007z"/>
	<path fill="#FFFFFF" d="M168.444,100.475c0.684,0.41,1.463,0.631,2.264,0.631c1.291,0,2.043-0.682,2.043-1.662
		c0-0.91-0.521-1.42-1.842-1.942c-1.594-0.56-2.583-1.392-2.583-2.762c0-1.521,1.261-2.644,3.153-2.644
		c0.75-0.029,1.489,0.141,2.16,0.473l-0.35,1.029c-0.571-0.31-1.212-0.47-1.854-0.461c-1.33,0-1.84,0.803-1.84,1.461
		c0,0.911,0.59,1.361,1.94,1.883c1.651,0.642,2.481,1.422,2.481,2.862c0,1.501-1.11,2.813-3.412,2.813
		c-0.873,0.011-1.722-0.211-2.481-0.621L168.444,100.475z"/>
	<path fill="#FFFFFF" d="M177.205,92.245h5.255v1.062h-3.984v3.244h3.694v1.039h-3.694v4.417h-1.271V92.245L177.205,92.245z"/>
	<path fill="#FFFFFF" d="M194.04,97.02c0,3.365-2.042,5.147-4.532,5.147c-2.573,0-4.386-2.003-4.386-4.966
		c0-3.094,1.934-5.124,4.535-5.124C192.319,92.086,194.04,94.128,194.04,97.02z M186.474,97.18c0,2.084,1.131,3.956,3.114,3.956
		c1.979,0,3.121-1.844,3.121-4.055c0-1.942-1.011-3.964-3.112-3.964C187.494,93.117,186.474,95.039,186.474,97.18z"/>
	<path fill="#FFFFFF" d="M197.124,92.378c0.801-0.142,1.611-0.212,2.411-0.202c1.353,0,2.213,0.25,2.834,0.803
		c0.509,0.479,0.79,1.149,0.76,1.852c0.011,1.141-0.741,2.162-1.842,2.482v0.039c0.752,0.262,1.2,0.959,1.432,1.974
		c0.32,1.36,0.552,2.301,0.751,2.683h-1.302c-0.29-0.752-0.511-1.533-0.651-2.334c-0.287-1.351-0.811-1.852-1.951-1.891h-1.188
		v4.225h-1.263L197.124,92.378z M198.386,96.82h1.291c1.35,0,2.201-0.74,2.201-1.852c0-1.262-0.911-1.813-2.243-1.822
		c-0.419-0.011-0.839,0.03-1.249,0.121V96.82L198.386,96.82z"/>
	<path fill="#FFFFFF" d="M214.591,97.723c-0.07-1.361-0.16-3.002-0.15-4.215h-0.051c-0.33,1.143-0.74,2.361-1.23,3.703l-1.73,4.734
		h-0.962l-1.58-4.645c-0.46-1.371-0.853-2.633-1.132-3.794h-0.031c-0.029,1.212-0.099,2.853-0.188,4.313l-0.262,4.186h-1.174
		l0.672-9.762h1.611l1.661,4.727c0.401,1.201,0.742,2.272,0.981,3.281h0.039c0.24-0.979,0.593-2.051,1.031-3.281l1.731-4.727h1.612
		l0.608,9.762h-1.221L214.591,97.723z"/>
	<path fill="#FFFFFF" d="M220.886,98.934l-1.011,3.073h-1.302l3.313-9.762h1.521l3.334,9.762h-1.352l-1.041-3.073H220.886z
		 M224.079,97.952l-0.961-2.813c-0.223-0.64-0.352-1.209-0.512-1.771h-0.028c-0.15,0.579-0.302,1.171-0.49,1.771l-0.951,2.834
		L224.079,97.952z"/>
	<path fill="#FFFFFF" d="M230.354,93.307h-2.974v-1.062h7.228v1.062h-2.973v8.689h-1.271v-8.689H230.354z"/>
	<path fill="#FFFFFF" d="M238.403,92.245v9.762h-1.262v-9.762H238.403z"/>
	<path fill="#FFFFFF" d="M250.413,97.02c0,3.375-2.051,5.147-4.544,5.147c-2.581,0-4.382-2.003-4.382-4.966
		c0-3.094,1.92-5.124,4.531-5.124C248.622,92.077,250.413,94.128,250.413,97.02z M242.837,97.18c0,2.084,1.131,3.956,3.112,3.956
		c1.983,0,3.134-1.844,3.134-4.055c0-1.942-1.014-3.964-3.114-3.964s-3.143,1.922-3.143,4.063H242.837z"/>
	<path fill="#FFFFFF" d="M253.478,102.007v-9.762h1.371l3.135,4.935c0.648,1.022,1.238,2.074,1.75,3.174h0.029
		c-0.109-1.301-0.141-2.479-0.141-4.013v-4.096h1.191v9.762h-1.271l-3.102-4.966c-0.672-1.051-1.282-2.131-1.822-3.254h-0.051
		c0.07,1.23,0.101,2.402,0.101,4.023v4.174L253.478,102.007z"/>
	
		<linearGradient id="SVGID_1_" gradientUnits="userSpaceOnUse" x1="862.4473" y1="-459.9785" x2="815.9188" y2="-483.654" gradientTransform="matrix(0.9524 -0.0762 -0.0762 -0.9524 -690.9454 -356.7467)">
		<stop  offset="0" style="stop-color:#FAB017"/>
		<stop  offset="1" style="stop-color:#ED2D44"/>
	</linearGradient>
	<path fill="url(#SVGID_1_)" d="M124.965,45.773c-2.402-3.154,11.461-24.204,40.749-42.231c1.131-0.711,6.205-2.242,6.285,3.794
		c0.08,6.045,1.15,19.949-20.229,27.346C130.39,42.079,126.737,48.084,124.965,45.773z"/>
	
		<linearGradient id="SVGID_2_" gradientUnits="userSpaceOnUse" x1="859.8867" y1="-461.291" x2="816.0313" y2="-483.6075" gradientTransform="matrix(0.9524 -0.0762 -0.0762 -0.9524 -690.9454 -356.7467)">
		<stop  offset="0" style="stop-color:#F37845;stop-opacity:0.5"/>
		<stop  offset="1" style="stop-color:#BF0079"/>
	</linearGradient>
	<path fill="url(#SVGID_2_)" d="M125.086,45.682c-2.122-1.812,11.261-22.782,39.978-39.658c0.92-0.541,4.084-1.801,4.146,3.043
		c0.06,4.845,0.278,18.928-23.783,27.046C125.426,42.88,127.047,47.344,125.086,45.682z"/>
	<path opacity="0.5" fill="#FFFFFF" enable-background="new    " d="M165.976,4.543c-31.08,18.507-42.392,39.327-40.89,41.139
		c0.41,0.5,9.228-10.57,24.151-18.388c13.043-6.837,18.537-4.043,20.381-9.088C170.388,16.084,173.892-0.161,165.976,4.543z"/>
	
		<linearGradient id="SVGID_3_" gradientUnits="userSpaceOnUse" x1="911.7383" y1="-386.4033" x2="874.6639" y2="-405.2716" gradientTransform="matrix(0.951 -0.0495 -0.0495 -0.951 -729.2784 -300.9429)">
		<stop  offset="0" style="stop-color:#F37845;stop-opacity:0.5"/>
		<stop  offset="1" style="stop-color:#BF0079"/>
	</linearGradient>
	<path fill="url(#SVGID_3_)" d="M125.106,45.662c-1.242-1.161,9.779-19.799,33.732-33.501c0.92-0.53,4.134-1.672,4.043,3.193
		c-0.09,4.865-1.011,14.293-18.177,20.199C124.925,42.319,126.597,47.063,125.106,45.662z"/>
	
		<linearGradient id="SVGID_4_" gradientUnits="userSpaceOnUse" x1="-1821.2373" y1="-245.5645" x2="-1867.7612" y2="-269.2357" gradientTransform="matrix(-0.9524 -0.0762 0.0762 -0.9524 -1601.9047 -356.7467)">
		<stop  offset="0" style="stop-color:#FAB017"/>
		<stop  offset="1" style="stop-color:#ED2D44"/>
	</linearGradient>
	<path fill="url(#SVGID_4_)" d="M153.992,45.773c2.401-3.154-11.46-24.204-40.748-42.231c-1.131-0.711-6.206-2.242-6.286,3.794
		s-1.15,19.949,20.23,27.346C148.567,42.079,152.222,48.084,153.992,45.773z"/>
	
		<linearGradient id="SVGID_5_" gradientUnits="userSpaceOnUse" x1="-1823.8003" y1="-246.8735" x2="-1867.6583" y2="-269.1913" gradientTransform="matrix(-0.9524 -0.0762 0.0762 -0.9524 -1601.9047 -356.7467)">
		<stop  offset="0" style="stop-color:#F37845;stop-opacity:0.5"/>
		<stop  offset="1" style="stop-color:#BF0079"/>
	</linearGradient>
	<path fill="url(#SVGID_5_)" d="M153.882,45.682c2.123-1.812-11.26-22.782-39.977-39.658c-0.921-0.541-4.074-1.801-4.145,3.043
		c-0.07,4.845-0.28,18.928,23.783,27.046C153.543,42.88,151.921,47.344,153.882,45.682z"/>
	<path opacity="0.5" fill="#FFFFFF" enable-background="new    " d="M112.994,4.543c31.069,18.507,42.391,39.337,40.897,41.129
		c-0.41,0.5-9.229-10.57-24.163-18.387c-13.042-6.837-18.528-4.044-20.379-9.089C108.58,16.084,105.077-0.161,112.994,4.543z"/>
	
		<linearGradient id="SVGID_6_" gradientUnits="userSpaceOnUse" x1="-1781.2979" y1="-248.6724" x2="-1818.3713" y2="-267.5366" gradientTransform="matrix(-0.9524 -0.0476 0.0476 -0.9524 -1562.7633 -300.3113)">
		<stop  offset="0" style="stop-color:#F37845;stop-opacity:0.5"/>
		<stop  offset="1" style="stop-color:#BF0079"/>
	</linearGradient>
	<path fill="url(#SVGID_6_)" d="M153.862,45.662c1.23-1.161-9.76-19.799-33.732-33.501c-0.92-0.53-4.133-1.672-4.043,3.193
		s1.011,14.293,18.178,20.199C154.022,42.319,152.371,47.063,153.862,45.662z"/>
</g>
</svg>
